<svg width="115" height="107" viewBox="0 0 115 107" fill="none" xmlns="http://www.w3.org/2000/svg">
<path d="M57.3348 1.5099e-06C45.9972 -0.00250954 34.9134 3.12703 25.4852 8.99284C16.057 14.8586 8.70785 23.1972 4.36725 32.954C0.026659 42.7108 -1.11044 53.4476 1.09977 63.8064C3.30999 74.1652 8.76822 83.6809 16.7842 91.1498C24.8002 98.6188 35.0138 103.706 46.1334 105.767C57.253 107.828 68.779 106.772 79.2539 102.731C89.7288 98.6894 98.6819 91.8454 104.981 83.0641C111.28 74.2827 114.642 63.9584 114.642 53.397C114.642 39.2374 108.605 25.6576 97.8582 15.6441C87.1113 5.63059 72.535 0.00336802 57.3348 1.5099e-06V1.5099e-06Z" fill="#92003B"/>
<path d="M42.9976 31.1419H33.4441V75.6394H42.9976V31.1419Z" fill="white"/>
<path d="M81.2118 66.7399H52.5513V75.6394H81.2118V66.7399Z" fill="white"/>
<path d="M81.2118 48.9409H52.5513V57.8404H81.2118V48.9409Z" fill="white"/>
<path d="M81.2118 31.1419H52.5513V40.0414H81.2118V31.1419Z" fill="white"/>
</svg>
