<svg width="88" height="97" viewBox="0 0 88 97" fill="none" xmlns="http://www.w3.org/2000/svg">
<path d="M82.4906 47.7127C82.4906 42.7311 78.4405 38.6927 73.4444 38.6927C73.123 38.6927 72.8061 38.7098 72.4936 38.7424L84.9185 2.20288H32.1171L44.5244 38.7109C44.3426 38.6999 44.1597 38.6927 43.9748 38.6927C38.9787 38.6927 34.9286 42.7311 34.9286 47.7127C34.9286 51.7394 37.5752 55.1484 41.2282 56.3083C39.2987 59.6406 36.8712 62.6418 34.115 65.2344C30.3671 68.76 26.0778 71.4331 21.4389 73.0804C15.9155 70.2513 13.3071 63.959 15.6608 58.4423C15.9265 57.8195 16.1977 57.1878 16.4572 56.5592C20.4585 55.6279 23.4402 52.0509 23.4402 47.7775C23.4402 42.7958 19.3901 38.7575 14.3941 38.7575C9.39765 38.7575 5.34758 42.7958 5.34758 47.7775C5.34758 50.8324 6.87212 53.5303 9.20205 55.1621C6.96287 60.2456 3.6718 65.5651 2.6464 71.7306C1.41749 79.1201 2.64262 86.9637 9.05183 91.3932C23.9788 101.709 40.1818 84.9984 57.2659 80.7976C63.4571 79.275 70.2534 79.5204 75.7084 76.3702C79.8049 74.0045 82.5054 70.084 83.2719 65.6824C84.0289 61.3342 82.9251 57.0048 80.3868 53.4943C81.6996 51.9286 82.4906 49.9132 82.4906 47.7127ZM53.0202 47.7446C53.0202 47.7339 53.0212 47.7233 53.0212 47.7127C53.0212 44.4414 51.2743 41.5767 48.6604 39.9955L58.5357 20.0845L68.4281 40.2067C65.9988 41.8238 64.398 44.5816 64.398 47.7127C64.398 47.7785 64.4018 47.8433 64.4031 47.9087L53.0202 47.7446Z" fill="#C63D14"/>
<path d="M84.6997 47.7127C84.6997 42.2337 80.7407 37.6621 75.5257 36.6855L88 0H29.0352L41.5284 36.7599C36.4949 37.877 32.7192 42.3623 32.7192 47.7127C32.7192 51.7308 34.8487 55.2602 38.0404 57.2434C36.5052 59.5237 34.6847 61.6697 32.5985 63.632C29.2903 66.7442 25.6042 69.1044 21.6305 70.6571C17.6282 68.1502 15.9363 63.4229 17.6935 59.3044L17.831 58.9822C17.9169 58.7806 18.0032 58.5784 18.0892 58.3762C22.485 56.8478 25.6493 52.6755 25.6493 47.7775C25.6493 41.589 20.5999 36.5546 14.3935 36.5546C8.18711 36.5546 3.13811 41.589 3.13811 47.7775C3.13811 50.901 4.42545 53.7294 6.49757 55.7661C6.12186 56.5647 5.72689 57.3764 5.32092 58.2079C3.42617 62.0882 1.27876 66.4865 0.466481 71.3704C-1.14674 81.0701 1.45511 88.8239 7.79282 93.2036C11.6387 95.8614 15.544 96.9068 19.4741 96.9064C26.8747 96.9061 34.3606 93.1992 41.6824 89.5728C46.9559 86.9614 52.4085 84.2608 57.7947 82.9364C59.7988 82.4435 61.8609 82.147 64.0441 81.833C68.3733 81.2103 72.8503 80.5666 76.8158 78.2766C81.412 75.622 84.5587 71.1689 85.4484 66.0594C86.2122 61.6732 85.2926 57.2804 83.0507 53.5546C84.096 51.8518 84.6997 49.8515 84.6997 47.7127ZM80.2811 47.7127C80.2811 51.4717 77.2142 54.5301 73.4439 54.5301C69.6744 54.5301 66.6071 51.4717 66.6071 47.7127C66.6071 43.9537 69.6744 40.8956 73.4439 40.8956C77.2142 40.8956 80.2811 43.9537 80.2811 47.7127ZM81.8362 4.40579L70.8208 36.8007C70.3433 36.9148 69.8779 37.0588 69.4258 37.2319L58.5441 15.0974L47.6307 37.101C47.1591 36.9388 46.6737 36.8055 46.1759 36.7068L35.1983 4.40579H81.8362ZM43.9746 40.8956C47.7445 40.8956 50.8114 43.9537 50.8114 47.7127C50.8114 51.4717 47.7445 54.5301 43.9746 54.5301C40.205 54.5301 37.1377 51.4717 37.1377 47.7127C37.1377 43.9537 40.205 40.8956 43.9746 40.8956ZM14.3935 40.9604C18.1638 40.9604 21.2307 44.0185 21.2307 47.7775C21.2307 51.5365 18.1638 54.5949 14.3935 54.5949C10.624 54.5949 7.55667 51.5365 7.55667 47.7775C7.55667 44.0185 10.624 40.9604 14.3935 40.9604ZM81.0948 65.3057C80.4296 69.1267 78.0625 72.4648 74.601 74.4638C71.3742 76.3274 67.5074 76.8836 63.4133 77.4722C61.2202 77.7875 58.9521 78.1138 56.7366 78.6588C50.8784 80.099 45.2042 82.9093 39.7169 85.627C28.7358 91.0655 19.2521 95.762 10.3101 89.5824C3.75995 85.056 4.06245 76.6807 4.82557 72.0912C5.53267 67.8393 7.44461 63.9233 9.29364 60.1362C9.61367 59.4809 9.92442 58.8389 10.2293 58.201C11.1464 58.5668 12.1217 58.8159 13.1381 58.929C11.2561 65.123 14.2161 71.8575 20.4287 75.04L21.2788 75.4756L22.1794 75.1558C27.0909 73.4119 31.6164 70.6129 35.6307 66.8368C38.2257 64.396 40.4556 61.6954 42.2892 58.8098C42.8392 58.8924 43.4019 58.9359 43.9746 58.9359C50.181 58.9359 55.2303 53.9015 55.2303 47.7127C55.2303 44.3845 53.7684 41.3916 51.4529 39.3344L58.5265 25.0716L65.6721 39.6062C63.5281 41.6511 62.1885 44.5278 62.1885 47.7127C62.1885 53.9015 67.2375 58.9359 73.4439 58.9359C75.8285 58.9359 78.0405 58.1907 79.8624 56.9246C81.1274 59.5066 81.5987 62.4118 81.0948 65.3057Z" fill="white"/>
</svg>
