<svg width="569" height="545" viewBox="0 0 569 545" fill="none" xmlns="http://www.w3.org/2000/svg">
<path d="M166.666 12.2439L440.104 133.34C475.958 149.218 492.151 191.155 476.273 227.009L363.23 482.262L89.7922 361.165C53.9387 345.287 37.7455 303.35 53.6238 267.497L166.666 12.2439Z" stroke="black" stroke-width="18"/>
<path d="M275.572 357.43L276.666 303.1L189.876 264.664L150.38 301.987L125.034 290.762L279.955 145.623L304.276 156.394L300.918 368.655L275.572 357.43ZM209.07 246.216L208.503 247.496L276.86 277.769L277.427 276.489L279.801 179.853L279.289 179.626L209.07 246.216Z" fill="black"/>
<path d="M319 378L314.541 493.384L416.696 439.554L319 378ZM415.847 540.338L369.803 452.96L352.11 462.284L398.153 549.662L415.847 540.338Z" fill="black"/>
</svg>
