<svg width="42" height="42" viewBox="0 0 46 42" fill="none" xmlns="http://www.w3.org/2000/svg">
<path d="M42.1367 0H3.86328C2.78516 0 1.87174 0.532164 1.12305 1.59649C0.374349 2.66082 0 3.88889 0 5.2807V36.7193C0 38.1111 0.374349 39.3392 1.12305 40.4035C1.87174 41.4678 2.78516 42 3.86328 42H42.1367C43.2148 42 44.1283 41.4678 44.877 40.4035C45.6257 39.3392 46 38.1111 46 36.7193V5.2807C46 3.88889 45.6257 2.66082 44.877 1.59649C44.1283 0.532164 43.2148 0 42.1367 0ZM38.543 5.2807L23 17.807L7.45703 5.2807H38.543ZM3.86328 36.7193V8.47368L22.0117 23.3333C22.1315 23.4971 22.4609 23.5789 23 23.5789C23.5391 23.5789 23.8685 23.4971 23.9883 23.3333L42.1367 8.47368V36.7193H3.86328Z" fill="white"/>
</svg>
