<svg width="108" height="108" viewBox="0 0 108 108" fill="none" xmlns="http://www.w3.org/2000/svg">
<g filter="url(#filter0_d_669_3)">
<path d="M49.4995 1.26951C52.2184 -0.14361 55.7598 -0.149993 58.4764 1.26951C72.1433 8.28157 85.8146 15.2826 99.4792 22.2989C102.049 23.6135 103.768 26.2106 103.742 28.8997V71.0869C103.761 73.8872 101.872 76.5465 99.1609 77.8312C85.5389 84.8046 71.9239 91.7865 58.3042 98.7599C55.529 100.201 51.9165 100.09 49.228 98.5309C45.1442 96.3812 41.0533 94.2422 36.969 92.0947C36.8563 92.0337 36.7416 91.9743 36.6261 91.9155C35.3476 91.2644 35.4671 90.0484 36.8136 89.5532V89.5532C38.5183 89.061 40.0839 88.2709 41.65 87.5043C42.046 87.2582 42.5295 87.3525 42.9091 87.5727C46.4013 89.3908 49.8627 91.2617 53.3666 93.0624C54.1141 93.4543 54.871 92.9341 55.5099 92.6106C68.8773 85.7507 82.2611 78.9167 95.6261 72.0546C96.1213 71.8383 96.3951 71.361 96.3548 70.8685C96.3642 56.9518 96.3572 43.0326 96.3595 29.116C96.4162 28.5571 96.06 28.0433 95.5035 27.8145C81.9287 20.8731 68.361 13.9209 54.7885 6.97767C54.5534 6.83088 54.2748 6.75212 53.9895 6.75174C53.7041 6.75136 53.4253 6.82938 53.1897 6.97554C39.6173 13.9209 26.0519 20.8794 12.4794 27.8206C11.9249 28.0497 11.5527 28.555 11.6187 29.116C11.621 43.0326 11.6187 56.9518 11.6187 70.8706C11.5952 71.1109 11.6533 71.352 11.7853 71.5614C11.9172 71.7708 12.1167 71.9385 12.3568 72.0419C15.9787 73.9068 19.6052 75.7585 23.2294 77.617C25.2712 78.6149 27.778 79.2078 30.0276 78.4433C32.0127 77.7968 33.4042 75.9575 33.3663 74.0436C33.385 60.2082 33.3569 46.3706 33.3803 32.5372C33.3307 31.9231 33.9724 31.4156 34.6301 31.4734C36.3703 31.4628 38.1129 31.4521 39.8531 31.4777C40.2443 31.4696 40.5698 31.6577 40.7729 31.9297C41.1168 32.3902 40.9895 33.0315 40.9892 33.6063C40.9836 47.2416 41.0077 60.8772 40.9779 74.5124C40.9826 78.2231 39.3037 82.2607 35.5236 84.0763C30.8668 86.2667 25.1111 85.8021 20.5105 83.7018C16.5278 81.8968 12.727 79.7667 8.81501 77.833C6.09646 76.5553 4.2168 73.8855 4.23593 71.0872V28.8997C4.20742 26.155 5.99492 23.5106 8.64512 22.2153C22.2648 15.2362 35.8821 8.25178 49.4995 1.26951Z" fill="#8CC84B"/>
</g>
<g filter="url(#filter1_d_669_3)">
<path d="M61.3812 30.493C67.3213 30.1458 73.6805 30.2873 79.0258 32.9444C83.1643 34.9806 85.4587 39.254 85.5318 43.4288C85.4162 43.9919 84.7679 44.3026 84.1758 44.2639C82.4524 44.2618 80.7285 44.2852 79.0051 44.2533C78.274 44.2788 77.8491 43.6667 77.7573 43.0799C77.2621 41.0823 76.0624 39.104 73.9917 38.1405C70.8131 36.6955 67.1276 36.7682 63.6615 36.7983C61.1312 36.9203 58.4104 37.1192 56.2667 38.4703C54.621 39.4937 54.1211 41.5596 54.7084 43.2235C55.2622 44.4182 56.781 44.8036 58.0237 45.1589C65.1823 46.8589 72.7682 46.6898 79.7901 48.927C82.6972 49.8391 85.5411 51.6121 86.5362 54.376C87.8379 58.0802 87.2673 62.5079 84.3648 65.4816C82.0111 67.9288 78.5829 69.2607 75.1637 69.9841C70.6151 70.905 65.8947 70.9284 61.2754 70.5196C56.9318 70.0699 52.4117 69.0338 49.0585 66.3465C46.1912 64.0859 44.7907 60.5635 44.9297 57.1639C44.9629 56.5898 45.5925 56.1894 46.1982 56.2366C47.9337 56.2238 49.6693 56.2196 51.4049 56.2387C52.0981 56.1937 52.612 56.7377 52.6476 57.3309C52.9678 59.2341 53.7555 61.2316 55.5832 62.36C59.1106 64.4263 63.5366 64.2848 67.5755 64.3426C70.9217 64.2079 74.6779 64.1671 77.4085 62.1589C78.8492 61.0135 79.2761 59.0972 78.8867 57.4487C78.465 56.0568 76.8614 55.4082 75.4844 54.9841C68.4175 52.9543 60.747 53.6909 53.7485 51.3955C50.9073 50.4838 48.1599 48.76 47.0683 46.1097C45.5452 42.3586 46.2431 37.7189 49.4498 34.8455C52.5765 31.9873 57.0899 30.8866 61.3812 30.4926V30.493Z" fill="#8CC84B"/>
</g>
<defs>
<filter id="filter0_d_669_3" x="0.235596" y="0.207275" width="107.507" height="107.567" filterUnits="userSpaceOnUse" color-interpolation-filters="sRGB">
<feFlood flood-opacity="0" result="BackgroundImageFix"/>
<feColorMatrix in="SourceAlpha" type="matrix" values="0 0 0 0 0 0 0 0 0 0 0 0 0 0 0 0 0 0 127 0" result="hardAlpha"/>
<feOffset dy="4"/>
<feGaussianBlur stdDeviation="2"/>
<feComposite in2="hardAlpha" operator="out"/>
<feColorMatrix type="matrix" values="0 0 0 0 0 0 0 0 0 0 0 0 0 0 0 0 0 0 0.25 0"/>
<feBlend mode="normal" in2="BackgroundImageFix" result="effect1_dropShadow_669_3"/>
<feBlend mode="normal" in="SourceGraphic" in2="effect1_dropShadow_669_3" result="shape"/>
</filter>
<filter id="filter1_d_669_3" x="40.9203" y="30.3555" width="50.2765" height="48.4176" filterUnits="userSpaceOnUse" color-interpolation-filters="sRGB">
<feFlood flood-opacity="0" result="BackgroundImageFix"/>
<feColorMatrix in="SourceAlpha" type="matrix" values="0 0 0 0 0 0 0 0 0 0 0 0 0 0 0 0 0 0 127 0" result="hardAlpha"/>
<feOffset dy="4"/>
<feGaussianBlur stdDeviation="2"/>
<feComposite in2="hardAlpha" operator="out"/>
<feColorMatrix type="matrix" values="0 0 0 0 0 0 0 0 0 0 0 0 0 0 0 0 0 0 0.25 0"/>
<feBlend mode="normal" in2="BackgroundImageFix" result="effect1_dropShadow_669_3"/>
<feBlend mode="normal" in="SourceGraphic" in2="effect1_dropShadow_669_3" result="shape"/>
</filter>
</defs>
</svg>
