<svg width="109" height="100" viewBox="0 0 109 100" fill="none" xmlns="http://www.w3.org/2000/svg">
<path d="M54.0384 0.0283203C26.4341 0.0283221 28.1579 11.0539 28.1579 11.0539L28.1886 22.4763H54.5308V25.9058H17.7256C17.7256 25.9058 0.0615845 24.0607 0.0615845 49.7142C0.0615825 75.3677 15.4791 74.458 15.4791 74.458H24.6804V62.5538C24.6804 62.5538 24.1845 48.3537 39.8518 48.3537H65.9786C65.9786 48.3537 80.6576 48.5723 80.6576 35.2875V13.3214C80.6576 13.3213 82.8863 0.0283203 54.0384 0.0283203ZM39.5133 7.70937C42.1342 7.70937 44.2524 9.66036 44.2524 12.0742C44.2524 14.4881 42.1342 16.4391 39.5133 16.4391C36.8925 16.4391 34.7742 14.4881 34.7742 12.0742C34.7742 9.66036 36.8925 7.70937 39.5133 7.70937Z" fill="url(#paint0_linear_385_8)"/>
<path d="M54.8224 99.6573C82.4268 99.6573 80.703 88.6318 80.703 88.6318L80.6722 77.2094H54.33V73.7799H91.1352C91.1352 73.7799 108.799 75.6249 108.799 49.9714C108.799 24.318 93.3817 25.2277 93.3817 25.2277H84.1804V37.1319C84.1804 37.1319 84.6764 51.3319 69.009 51.3319H42.8822C42.8822 51.3319 28.2032 51.1134 28.2032 64.3982V86.3643C28.2032 86.3643 25.9746 99.6573 54.8224 99.6573ZM69.3475 91.9763C66.7267 91.9763 64.6084 90.0253 64.6084 87.6114C64.6084 85.1975 66.7267 83.2465 69.3475 83.2465C71.9684 83.2465 74.0867 85.1975 74.0867 87.6114C74.0867 90.0253 71.9684 91.9763 69.3475 91.9763Z" fill="url(#paint1_linear_385_8)"/>
<defs>
<linearGradient id="paint0_linear_385_8" x1="10.5115" y1="8.98968" x2="60.0157" y2="62.2023" gradientUnits="userSpaceOnUse">
<stop stop-color="#387EB8"/>
<stop offset="1" stop-color="#366994"/>
</linearGradient>
<linearGradient id="paint1_linear_385_8" x1="43.587" y1="40.5415" x2="96.9515" y2="95.3141" gradientUnits="userSpaceOnUse">
<stop stop-color="#FFE052"/>
<stop offset="1" stop-color="#FFC331"/>
</linearGradient>
</defs>
</svg>
