<svg width="118" height="106" viewBox="0 0 118 106" fill="none" xmlns="http://www.w3.org/2000/svg">
<path d="M0.347534 52.8848C0.347534 61.7404 8.99574 70.007 22.6297 74.6669C19.9071 88.3717 22.1421 99.4183 29.6062 103.722C37.2782 108.147 48.708 105.084 59.5566 95.6019C70.1315 104.701 80.8188 108.282 88.2765 103.966C95.9415 99.5289 98.2724 87.7334 95.4746 73.6004C109.676 68.906 117.619 61.857 117.619 52.8848C117.619 44.2347 108.955 36.7516 95.5046 32.1217C98.5167 17.4047 95.9646 6.62637 88.1912 2.14442C80.6971 -2.1767 69.8854 1.58953 59.1552 10.9267C47.9917 1.01621 37.2869 -2.0094 29.5218 2.485C22.0347 6.81856 19.8983 18.0661 22.6297 32.0244C9.45574 36.617 0.347534 44.2697 0.347534 52.8848Z" fill="white"/>
<path d="M92.6561 36.7193C91.5476 36.3391 90.4296 35.9869 89.3034 35.663C89.4901 34.9041 89.6629 34.1419 89.8214 33.3766C92.3593 21.0585 90.7 11.1351 85.0334 7.86842C79.6006 4.73542 70.715 8.00207 61.7409 15.8106C60.8566 16.5818 59.992 17.3752 59.1478 18.1901C58.5825 17.6482 58.0071 17.1169 57.4221 16.5964C48.0171 8.24633 38.5899 4.72805 32.9294 8.00437C27.5016 11.1461 25.8939 20.4755 28.1787 32.1493C28.406 33.3054 28.6627 34.4555 28.9484 35.5985C27.6145 35.9773 26.3263 36.381 25.0938 36.8106C14.0677 40.6542 7.02576 46.6787 7.02576 52.9272C7.02576 59.3812 14.5848 65.8546 26.07 69.7793C27.0013 70.0961 27.9403 70.3896 28.8862 70.6596C28.5789 71.891 28.3061 73.1308 28.0681 74.3774C25.8898 85.8485 27.591 94.9567 33.0045 98.0791C38.5959 101.303 47.9802 97.9892 57.1184 90.0023C57.8406 89.3709 58.5656 88.7013 59.2916 87.9994C60.206 88.8815 61.1448 89.738 62.1069 90.5678C70.9584 98.1837 79.7001 101.259 85.109 98.1284C90.6953 94.8949 92.5104 85.1102 90.1533 73.2054C89.9735 72.2962 89.7638 71.3675 89.5288 70.4218C90.1879 70.2273 90.8345 70.0264 91.4655 69.8171C103.405 65.862 111.173 59.4674 111.173 52.9272C111.173 46.6561 103.904 40.5911 92.6561 36.7193V36.7193Z" fill="#53C1DE"/>
<path d="M90.0662 65.5946C89.4969 65.7831 88.9125 65.9652 88.317 66.1417C86.9988 61.9694 85.2196 57.5326 83.0432 52.9493C85.1205 48.4742 86.8305 44.0946 88.1119 39.9491C89.1771 40.2579 90.2114 40.5828 91.2079 40.9261C100.846 44.243 106.724 49.148 106.724 52.9272C106.724 56.9529 100.375 62.1791 90.0666 65.5946H90.0662ZM85.7889 74.0695C86.831 79.3336 86.9799 84.093 86.2894 87.8136C85.669 91.1567 84.4218 93.3855 82.8795 94.2782C79.5973 96.1779 72.578 93.7086 65.0088 87.1956C64.1409 86.449 63.2665 85.6517 62.3899 84.8083C65.3245 81.5988 68.2574 77.8676 71.1197 73.7244C76.1547 73.2778 80.9114 72.5473 85.2251 71.5504C85.4372 72.4077 85.6261 73.2478 85.7889 74.0695V74.0695ZM42.5317 93.9501C39.3251 95.0824 36.7711 95.1147 35.2275 94.2247C31.9421 92.3306 30.5768 85.0166 32.4394 75.207C32.6609 74.0477 32.9145 72.8948 33.1999 71.7495C37.4657 72.6929 42.1878 73.3718 47.2349 73.781C50.1161 77.8353 53.1337 81.5619 56.1749 84.8253C55.5285 85.4505 54.8669 86.0596 54.1906 86.6522C50.1497 90.1843 46.1006 92.6896 42.5321 93.9501H42.5317ZM27.509 65.5697C22.4306 63.8341 18.2367 61.5786 15.3619 59.1176C12.7789 56.9054 11.4745 54.7093 11.4745 52.9272C11.4745 49.1356 17.1286 44.2988 26.5586 41.0114C27.7421 40.6006 28.9375 40.2245 30.1431 39.8836C31.4466 44.1223 33.1561 48.554 35.2192 53.0355C33.1294 57.5838 31.3954 62.086 30.08 66.3744C29.2165 66.1273 28.3592 65.859 27.509 65.5697V65.5697ZM32.545 31.2949C30.5874 21.2926 31.8872 13.7477 35.1584 11.8545C38.6429 9.83772 46.3472 12.7135 54.4676 19.9229C54.9866 20.3838 55.5079 20.8663 56.0301 21.3654C53.0047 24.6141 50.0147 28.3126 47.1584 32.3434C42.2602 32.7973 37.5713 33.5264 33.2608 34.503C32.9952 33.4396 32.7566 32.3698 32.545 31.2944V31.2949ZM77.4693 42.3866C76.4511 40.6281 75.3952 38.8918 74.3023 37.1788C77.6255 37.5982 80.8091 38.1558 83.7986 38.8384C82.9012 41.7147 81.7825 44.7223 80.4652 47.8055C79.5028 45.9795 78.5039 44.1728 77.4693 42.3866V42.3866ZM59.1492 24.5445C61.2012 26.7673 63.2564 29.2495 65.278 31.9424C61.1772 31.7486 57.0696 31.7477 52.9687 31.9396C54.9921 29.2717 57.0649 26.7931 59.1492 24.5445V24.5445ZM40.7115 42.417C39.6898 44.189 38.7097 45.9846 37.7718 47.8023C36.4761 44.7297 35.3676 41.7087 34.4624 38.7914C37.4339 38.1263 40.6027 37.583 43.9043 37.1705C42.7991 38.8941 41.7346 40.6434 40.7115 42.417V42.417ZM43.9992 69.0014C40.5884 68.6207 37.3717 68.105 34.4011 67.4584C35.3206 64.4895 36.4535 61.4035 37.7768 58.265C38.7187 60.084 39.7032 61.8807 40.7295 63.6534C41.7767 65.4618 42.867 67.245 43.9992 69.0014V69.0014ZM59.2722 81.6241C57.1635 79.3488 55.0604 76.8325 53.006 74.1258C55 74.2041 57.0331 74.2438 59.0994 74.2438C61.2224 74.2438 63.3209 74.1963 65.3863 74.1041C63.3583 76.8601 61.3104 79.3801 59.2722 81.6241ZM80.5076 58.105C81.8996 61.2777 83.0731 64.347 84.0051 67.2657C80.9852 67.9547 77.7251 68.5096 74.2899 68.9216C75.3907 67.1767 76.4567 65.4099 77.4873 63.6226C78.5349 61.806 79.5419 59.9664 80.5076 58.105V58.105ZM73.6331 61.4002C72.0554 64.1406 70.3891 66.8288 68.6367 69.4609C65.5467 69.6816 62.3535 69.7954 59.0994 69.7954C55.8587 69.7954 52.706 69.6945 49.6699 69.4977C47.8721 66.8718 46.1742 64.1789 44.58 61.4247C42.9932 58.6851 41.5111 55.8862 40.1367 53.0341C41.5076 50.1811 42.9853 47.3808 44.5666 44.6389V44.6398C46.1475 41.8974 47.832 39.2159 49.6164 36.6013C52.7138 36.3672 55.8895 36.2446 59.0998 36.2446C62.3244 36.2446 65.5043 36.3681 68.6007 36.6041C70.3671 39.2147 72.0409 41.8868 73.6188 44.6154C75.2056 47.3512 76.703 50.1378 78.1086 52.9709C76.7174 55.8329 75.2248 58.6445 73.6335 61.4002H73.6331ZM82.8113 11.7222C86.2986 13.7334 87.6551 21.8434 85.4639 32.4788C85.3203 33.1717 85.1642 33.8619 84.9956 34.5491C80.675 33.5522 75.9828 32.8102 71.0703 32.3493C68.2085 28.2748 65.2434 24.5699 62.2668 21.3631C63.0468 20.6113 63.8454 19.8789 64.6617 19.1666C72.3508 12.4757 79.537 9.83403 82.8113 11.7222V11.7222Z" fill="white"/>
<path d="M59.0994 43.6282C64.2359 43.6282 68.3993 47.7917 68.3993 52.9272C68.3993 58.0631 64.2359 62.2266 59.0994 62.2266C53.9634 62.2266 49.7994 58.0631 49.7994 52.9272C49.7994 47.7917 53.9634 43.6282 59.0994 43.6282" fill="#53C1DE"/>
</svg>
