<svg width="100" height="100" viewBox="0 0 120 111" fill="none" xmlns="http://www.w3.org/2000/svg">
<g filter="url(#filter0_d_669_9)">
<path d="M107.909 40.2801C107.909 34.2889 99.7261 28.611 87.1794 25.0899C90.0748 13.3653 88.7881 4.03726 83.1176 1.0508C81.8106 0.350265 80.2829 0.018426 78.6139 0.018426V4.12944C79.5388 4.12944 80.2829 4.29536 80.906 4.60873C83.6405 6.04664 84.827 11.5218 83.9017 18.5639C83.681 20.2968 83.319 22.1219 82.8766 23.9838C78.9354 23.0989 74.6327 22.4169 70.1087 21.9744C67.3945 18.5639 64.5795 15.4669 61.7443 12.757C68.2991 7.17119 74.4519 4.11097 78.6342 4.11097V0C73.1045 0 65.8663 3.61325 58.5476 9.88109C51.2285 3.65011 43.9903 0.0737466 38.461 0.0737466V4.18472C42.623 4.18472 48.7956 7.2265 55.3504 12.7754C52.5355 15.4853 49.7205 18.5639 47.0462 21.9744C42.5021 22.4169 38.1993 23.0989 34.2585 24.0022C33.7959 22.1588 33.4542 20.3705 33.2128 18.6561C32.2681 11.614 33.434 6.13881 36.1487 4.68247C36.7516 4.35063 37.5357 4.20318 38.461 4.20318V0.0921726C36.7718 0.0921726 35.2436 0.424012 33.9168 1.12454C28.2667 4.11097 27.0001 13.4206 29.9154 25.1083C17.4091 28.6478 9.26587 34.3074 9.26587 40.2801C9.26587 46.2718 17.4493 51.9497 29.9958 55.4705C27.1004 67.1953 28.3871 76.5231 34.0576 79.5097C35.3646 80.21 36.8923 80.5419 38.5815 80.5419C44.1108 80.5419 51.3494 76.9287 58.6681 70.6609C65.9868 76.892 73.2254 80.4685 78.7547 80.4685C80.4434 80.4685 81.9716 80.1367 83.2988 79.4359C88.9486 76.4493 90.2156 67.1397 87.2999 55.4524C99.7661 51.9312 107.909 46.2532 107.909 40.2801V40.2801ZM81.7306 27.9842C80.9865 30.3624 80.0617 32.8139 79.0159 35.2658C78.1918 33.7913 77.3272 32.3164 76.3821 30.8414C75.4572 29.3668 74.4717 27.9289 73.4866 26.5278C76.3416 26.9149 79.0964 27.3943 81.7306 27.9842V27.9842ZM72.5213 47.6172C70.9531 50.1062 69.3449 52.4658 67.6759 54.6597C64.6798 54.8992 61.644 55.0282 58.5876 55.0282C55.5514 55.0282 52.5152 54.8992 49.5397 54.6778C47.8708 52.4839 46.2419 50.1429 44.6737 47.6725C43.1454 45.2577 41.7584 42.8058 40.4914 40.3358C41.7382 37.8653 43.1454 35.3949 44.6539 32.9801C46.2221 30.4915 47.8303 28.1317 49.4993 25.9379C52.4954 25.6982 55.5312 25.5692 58.5876 25.5692C61.6238 25.5692 64.66 25.6982 67.6355 25.9195C69.3044 28.1132 70.9333 30.4544 72.5015 32.9248C74.0297 35.3396 75.4168 37.7915 76.6838 40.262C75.4168 42.732 74.0297 45.2025 72.5213 47.6172V47.6172ZM79.0159 45.221C80.0714 47.6234 80.9975 50.072 81.7908 52.5577C79.1566 53.1476 76.3821 53.6456 73.5069 54.0327C74.4919 52.6134 75.477 51.157 76.4023 49.6635C77.3272 48.189 78.1918 46.6955 79.0159 45.221ZM58.6276 64.891C56.7577 63.1209 54.8878 61.1484 53.0381 58.9917C54.8478 59.0655 56.6975 59.1207 58.5674 59.1207C60.4575 59.1207 62.3274 59.084 64.1573 58.9917C62.4314 61.0481 60.5854 63.0174 58.6276 64.891V64.891ZM43.6683 54.0327C40.8133 53.6456 38.0586 53.1662 35.4248 52.5763C36.1685 50.1982 37.0938 47.7463 38.1391 45.2944C38.9637 46.7693 39.8283 48.2442 40.7729 49.7188C41.7179 51.1937 42.6833 52.6315 43.6683 54.0327ZM58.5274 15.6697C60.3973 17.4394 62.2672 19.412 64.1168 21.5688C62.3072 21.4951 60.4575 21.4398 58.5876 21.4398C56.6975 21.4398 54.8275 21.4767 52.9981 21.5688C54.7239 19.5125 56.5697 17.5433 58.5274 15.6697V15.6697ZM43.6481 26.5278C42.663 27.9473 41.6779 29.4037 40.7531 30.8967C39.8283 32.3716 38.9637 33.8465 38.1391 35.3211C37.0835 32.9187 36.1576 30.4701 35.3646 27.9842C37.9984 27.4127 40.7729 26.9149 43.6481 26.5278V26.5278ZM25.4517 49.6083C18.334 46.8245 13.7296 43.1747 13.7296 40.2801C13.7296 37.3859 18.334 33.7175 25.4517 30.9523C27.1809 30.2701 29.071 29.6617 31.0214 29.0903C32.1674 32.7035 33.6754 36.4642 35.5453 40.3172C33.6956 44.1517 32.2074 47.8938 31.0816 51.4888C29.0912 50.9171 27.2011 50.2905 25.4517 49.6083ZM36.2692 75.9518C33.5347 74.5139 32.3482 69.0388 33.2735 61.9964C33.4947 60.2638 33.8561 58.4385 34.2986 56.5765C38.2398 57.4615 42.5425 58.1438 47.0665 58.5861C49.7807 61.9964 52.5957 65.0934 55.4309 67.8034C48.8761 73.3894 42.7233 76.4493 38.541 76.4493C37.6364 76.4312 36.8725 76.2651 36.2692 75.9518V75.9518ZM83.9624 61.9045C84.9071 68.9465 83.7412 74.4216 81.0265 75.878C80.4236 76.2098 79.6395 76.3574 78.7142 76.3574C74.5522 76.3574 68.3796 73.3156 61.8248 67.7667C64.6397 65.0567 67.4547 61.9782 70.129 58.5675C74.6731 58.1252 78.9759 57.443 82.9167 56.5398C83.3793 58.4018 83.7412 60.19 83.9624 61.9045ZM91.7033 49.6083C89.9741 50.2905 88.084 50.899 86.1336 51.4703C84.9875 47.8572 83.4796 44.0965 81.6097 40.2434C83.4598 36.4089 84.9475 32.6668 86.0733 29.0718C88.0642 29.6433 89.9539 30.2701 91.7235 30.9523C98.8412 33.7357 103.446 37.3859 103.446 40.2801C103.425 43.1747 98.821 46.8431 91.7033 49.6083V49.6083Z" fill="#61DAFB"/>
</g>
<g filter="url(#filter1_d_669_9)">
<path d="M58.5673 48.7051C63.6425 48.7051 67.7563 44.9332 67.7563 40.2801C67.7563 35.6273 63.6425 31.8555 58.5673 31.8555C53.4926 31.8555 49.3787 35.6273 49.3787 40.2801C49.3787 44.9332 53.4926 48.7051 58.5673 48.7051ZM13.745 95.0475H10.7117V99.8371H9V87.9973H13.2749C14.7295 87.9973 15.847 88.3011 16.6275 88.9083C17.4139 89.5151 17.8071 90.3989 17.8071 91.5589C17.8071 92.2963 17.5883 92.9386 17.1508 93.4864C16.7191 94.0339 16.116 94.4432 15.3415 94.714L18.3747 99.7394V99.8371H16.5477L13.745 95.0475ZM10.7117 93.7709H13.3282C14.1737 93.7709 14.8448 93.5701 15.3415 93.169C15.844 92.7679 16.0953 92.2312 16.0953 91.5589C16.0953 90.8272 15.8559 90.2661 15.3769 89.8758C14.9039 89.4854 14.218 89.2875 13.3193 89.2822H10.7117V93.7709ZM23.927 99.9999C22.626 99.9999 21.5676 99.6096 20.7517 98.8288C19.9357 98.0427 19.5277 96.9936 19.5277 95.6819V95.4053C19.5277 94.5326 19.708 93.7548 20.0687 93.0717C20.4353 92.3829 20.9438 91.8462 21.5942 91.4616C22.2506 91.0712 22.9601 90.8758 23.7228 90.8758C24.9705 90.8758 25.9403 91.2526 26.6318 92.0061C27.3238 92.7597 27.6695 93.8385 27.6695 95.2425V95.8687H21.1685C21.1921 96.7364 21.4671 97.4384 21.9933 97.9751C22.5255 98.5061 23.1995 98.7719 24.0156 98.7719C24.5951 98.7719 25.0856 98.6635 25.4876 98.4467C25.89 98.2299 26.2416 97.9425 26.5432 97.5847L27.5454 98.3004C26.7411 99.4331 25.5352 99.9999 23.927 99.9999ZM23.7228 92.1121C23.0606 92.1121 22.5048 92.3343 22.0554 92.7786C21.606 93.2181 21.3281 93.836 21.2217 94.6328H26.0289V94.519C25.9817 93.7548 25.7569 93.1637 25.3549 92.7461C24.9525 92.3235 24.4085 92.1121 23.7228 92.1121ZM35.5012 99.8371C35.4063 99.6636 35.3294 99.3548 35.2705 98.91C34.5076 99.6364 33.5971 99.9999 32.5387 99.9999C31.5928 99.9999 30.8154 99.7559 30.2062 99.2678C29.6033 98.7744 29.3016 98.1511 29.3016 97.3976C29.3016 96.4816 29.6801 95.7714 30.4368 95.2672C31.1994 94.7573 32.2699 94.5026 33.6475 94.5026H35.244V93.8117C35.244 93.2857 35.0723 92.8681 34.7297 92.5593C34.3866 92.2448 33.8808 92.0878 33.2127 92.0878C32.6273 92.0878 32.1368 92.223 31.7407 92.4942C31.3446 92.765 31.1463 93.0932 31.1463 93.4782H29.4967C29.4967 93.0392 29.6653 92.6162 30.0021 92.2094C30.3451 91.7975 30.8064 91.4723 31.3859 91.2336C31.9713 90.9954 32.6125 90.8758 33.3103 90.8758C34.4163 90.8758 35.2822 91.1306 35.909 91.6405C36.5357 92.1446 36.8608 92.8413 36.8846 93.7301V97.7797C36.8846 98.5877 36.997 99.2299 37.2218 99.7069V99.8371H35.5012ZM32.7784 98.6907C33.2927 98.6907 33.7805 98.5687 34.2418 98.3247C34.7027 98.0806 35.0367 97.7636 35.244 97.3733V95.5681H33.9577C31.9475 95.5681 30.9422 96.1073 30.9422 97.1861C30.9422 97.6577 31.1139 98.0266 31.4565 98.2921C31.7996 98.5576 32.2402 98.6907 32.7784 98.6907ZM43.3059 98.7719C43.8913 98.7719 44.4029 98.6091 44.8404 98.2839C45.2779 97.9586 45.5202 97.5522 45.5674 97.0641H47.1199C47.0902 97.5683 46.9009 98.0481 46.552 98.5036C46.2032 98.9591 45.736 99.3223 45.1506 99.5931C44.5711 99.8643 43.9565 99.9999 43.3059 99.9999C41.9993 99.9999 40.9585 99.6013 40.1838 98.8045C39.4155 98.0019 39.031 96.907 39.031 95.5191V95.2672C39.031 94.4106 39.2023 93.6488 39.5454 92.9823C39.8884 92.3153 40.379 91.7976 41.0178 91.429C41.6621 91.0601 42.422 90.8758 43.2969 90.8758C44.3733 90.8758 45.2662 91.1714 45.9757 91.7625C46.691 92.3532 47.0722 93.1204 47.1199 94.0635H45.5674C45.5202 93.4943 45.2837 93.028 44.8579 92.6649C44.4384 92.2963 43.9178 92.1121 43.2969 92.1121C42.4633 92.1121 41.8159 92.3883 41.3546 92.9415C40.8996 93.4889 40.6717 94.2833 40.6717 95.3241V95.6085C40.6717 96.6222 40.8996 97.4029 41.3546 97.9504C41.8101 98.4982 42.4606 98.7719 43.3059 98.7719ZM51.1906 88.9083V91.0387H52.9823V92.2015H51.1906V97.6577C51.1906 98.0101 51.2707 98.2756 51.4303 98.4545C51.5899 98.6281 51.8619 98.7151 52.2463 98.7151C52.4351 98.7151 52.6955 98.6825 53.0264 98.6174V99.8371C52.5947 99.9455 52.1753 99.9999 51.767 99.9999C51.0342 99.9999 50.4811 99.7963 50.1084 99.3899C49.7362 98.9834 49.55 98.4059 49.55 97.6577V92.2015H47.8024V91.0387H49.55V88.9083H51.1906ZM69.5943 99.8371H67.8822L61.3814 90.7134V99.8371H59.6697V87.9973H61.3814L67.9002 97.1618V87.9973H69.5943V99.8371ZM78.2861 99.8371C78.1912 99.6636 78.1144 99.3548 78.0555 98.91C77.2925 99.6364 76.382 99.9999 75.3237 99.9999C74.3777 99.9999 73.5999 99.7559 72.9911 99.2678C72.3882 98.7744 72.0865 98.1511 72.0865 97.3976C72.0865 96.4816 72.4646 95.7714 73.2217 95.2672C73.9843 94.7573 75.0548 94.5026 76.4324 94.5026H78.0289V93.8117C78.0289 93.2857 77.8572 92.8681 77.5141 92.5593C77.1715 92.2448 76.6657 92.0878 75.9976 92.0878C75.4122 92.0878 74.9217 92.223 74.5256 92.4942C74.1295 92.765 73.9312 93.0932 73.9312 93.4782H72.2816C72.2816 93.0392 72.4502 92.6162 72.787 92.2094C73.13 91.7975 73.5913 91.4723 74.1709 91.2336C74.7563 90.9954 75.3974 90.8758 76.0952 90.8758C77.2007 90.8758 78.0671 91.1306 78.6939 91.6405C79.3206 92.1446 79.6457 92.8413 79.6695 93.7301V97.7797C79.6695 98.5877 79.7819 99.2299 80.0067 99.7069V99.8371H78.2861ZM75.5633 98.6907C76.0776 98.6907 76.5655 98.5687 77.0268 98.3247C77.4876 98.0806 77.8217 97.7636 78.0289 97.3733V95.5681H76.7426C74.7324 95.5681 73.7271 96.1073 73.7271 97.1861C73.7271 97.6577 73.8988 98.0266 74.2414 98.2921C74.5845 98.5576 75.0251 98.6907 75.5633 98.6907ZM84.4677 88.9083V91.0387H86.2594V92.2015H84.4677V97.6577C84.4677 98.0101 84.5478 98.2756 84.7074 98.4545C84.867 98.6281 85.139 98.7151 85.5234 98.7151C85.7122 98.7151 85.9726 98.6825 86.3039 98.6174V99.8371C85.8718 99.9455 85.4524 99.9999 85.0441 99.9999C84.3113 99.9999 83.7583 99.7963 83.3855 99.3899C83.0133 98.9834 82.8271 98.4059 82.8271 97.6577V92.2015H81.08V91.0387H82.8271V88.9083H84.4677ZM89.9669 99.8371H88.3258V91.0387H89.9669V99.8371ZM88.1927 88.7046C88.1927 88.461 88.2727 88.2549 88.4324 88.0867C88.5978 87.9185 88.8401 87.8349 89.1594 87.8349C89.479 87.8349 89.7214 87.9185 89.8868 88.0867C90.0523 88.2549 90.135 88.461 90.135 88.7046C90.135 88.9487 90.0523 89.1519 89.8868 89.3147C89.7214 89.4771 89.479 89.5588 89.1594 89.5588C88.8401 89.5588 88.5978 89.4771 88.4324 89.3147C88.2727 89.1519 88.1927 88.9487 88.1927 88.7046ZM95.7672 97.7962L98.1438 91.0387H99.8204L96.3791 99.8371H95.1283L91.652 91.0387H93.3281L95.7672 97.7962ZM105.257 99.9999C103.956 99.9999 102.898 99.6096 102.082 98.8288C101.266 98.0427 100.858 96.9936 100.858 95.6819V95.4053C100.858 94.5326 101.038 93.7548 101.399 93.0717C101.765 92.3829 102.274 91.8462 102.924 91.4616C103.581 91.0712 104.29 90.8758 105.053 90.8758C106.301 90.8758 107.27 91.2526 107.962 92.0061C108.654 92.7597 109 93.8385 109 95.2425V95.8687H102.499C102.523 96.7364 102.797 97.4384 103.324 97.9751C103.856 98.5061 104.53 98.7719 105.346 98.7719C105.925 98.7719 106.416 98.6635 106.818 98.4467C107.22 98.2299 107.572 97.9425 107.874 97.5847L108.876 98.3004C108.072 99.4331 106.865 99.9999 105.257 99.9999ZM105.053 92.1121C104.391 92.1121 103.835 92.3343 103.386 92.7786C102.936 93.2181 102.658 93.836 102.552 94.6328H107.359V94.519C107.312 93.7548 107.087 93.1637 106.685 92.7461C106.283 92.3235 105.739 92.1121 105.053 92.1121Z" fill="#61DAFB"/>
</g>
<defs>
<filter id="filter0_d_669_9" x="5.26587" y="0" width="106.643" height="88.5419" filterUnits="userSpaceOnUse" color-interpolation-filters="sRGB">
<feFlood flood-opacity="0" result="BackgroundImageFix"/>
<feColorMatrix in="SourceAlpha" type="matrix" values="0 0 0 0 0 0 0 0 0 0 0 0 0 0 0 0 0 0 127 0" result="hardAlpha"/>
<feOffset dy="4"/>
<feGaussianBlur stdDeviation="2"/>
<feComposite in2="hardAlpha" operator="out"/>
<feColorMatrix type="matrix" values="0 0 0 0 0 0 0 0 0 0 0 0 0 0 0 0 0 0 0.25 0"/>
<feBlend mode="normal" in2="BackgroundImageFix" result="effect1_dropShadow_669_9"/>
<feBlend mode="normal" in="SourceGraphic" in2="effect1_dropShadow_669_9" result="shape"/>
</filter>
<filter id="filter1_d_669_9" x="0" y="22.8555" width="120" height="88.1445" filterUnits="userSpaceOnUse" color-interpolation-filters="sRGB">
<feFlood flood-opacity="0" result="BackgroundImageFix"/>
<feColorMatrix in="SourceAlpha" type="matrix" values="0 0 0 0 0 0 0 0 0 0 0 0 0 0 0 0 0 0 127 0" result="hardAlpha"/>
<feOffset dx="1" dy="1"/>
<feGaussianBlur stdDeviation="5"/>
<feComposite in2="hardAlpha" operator="out"/>
<feColorMatrix type="matrix" values="0 0 0 0 0 0 0 0 0 0 0 0 0 0 0 0 0 0 1 0"/>
<feBlend mode="normal" in2="BackgroundImageFix" result="effect1_dropShadow_669_9"/>
<feBlend mode="normal" in="SourceGraphic" in2="effect1_dropShadow_669_9" result="shape"/>
</filter>
</defs>
</svg>
