<svg width="111" height="109" viewBox="0 0 111 109" fill="none" xmlns="http://www.w3.org/2000/svg">
<ellipse cx="55.5" cy="54.5" rx="54.5" ry="53.5" fill="white"/>
<path d="M7.85844 54.5002C7.85844 73.0068 18.768 89.0001 34.5878 96.5791L11.9645 35.4723C9.33302 41.2871 7.85844 47.7219 7.85844 54.5002ZM87.302 52.1408C87.302 46.3625 85.1966 42.3609 83.3908 39.2462C80.9867 35.3949 78.7333 32.1334 78.7333 28.2821C78.7333 23.9842 82.0398 19.9834 86.6973 19.9834C86.9076 19.9834 87.107 20.0092 87.3119 20.0208C78.8741 12.4 67.6324 7.74711 55.2852 7.74711C38.7164 7.74711 24.1393 16.1276 15.6591 28.8212C16.7718 28.8542 17.8205 28.8773 18.7112 28.8773C23.6719 28.8773 31.3507 28.2839 31.3507 28.2839C33.9073 28.1353 34.2088 31.8372 31.6549 32.1352C31.6549 32.1352 29.0856 32.4332 26.2267 32.5809L43.4976 83.2245L53.8765 52.5376L46.4873 32.5791C43.9334 32.4315 41.514 32.1334 41.514 32.1334C38.9583 31.9857 39.2579 28.1335 41.8136 28.2821C41.8136 28.2821 49.6459 28.8755 54.3061 28.8755C59.2659 28.8755 66.9456 28.2821 66.9456 28.2821C69.504 28.1335 69.8046 31.8354 67.2498 32.1334C67.2498 32.1334 64.6751 32.4315 61.8216 32.5791L78.9607 82.8393L83.6913 67.2552C85.7416 60.7883 87.302 56.1434 87.302 52.1408ZM56.1173 58.5899L41.8876 99.353C46.1363 100.584 50.6295 101.258 55.2852 101.258C60.8081 101.258 66.1046 100.317 71.0346 98.6075C70.9073 98.4073 70.7918 98.1947 70.6971 97.9634L56.1173 58.5899ZM96.9003 32.0685C97.1042 33.5578 97.2198 35.1565 97.2198 36.8762C97.2198 41.6207 96.3209 46.9542 93.6136 53.623L79.1268 94.9145C93.2265 86.8089 102.71 71.7497 102.71 54.5011C102.711 46.3723 100.605 38.7284 96.9003 32.0685ZM55.2852 0C24.8017 0 0 24.4486 0 54.5002C0 84.5554 24.8017 109.003 55.2852 109.003C85.7678 109.003 110.573 84.5554 110.573 54.5002C110.572 24.4486 85.7678 0 55.2852 0ZM55.2852 106.505C26.1996 106.505 2.53495 83.1755 2.53495 54.5002C2.53495 25.8267 26.1987 2.49904 55.2852 2.49904C84.3699 2.49904 108.033 25.8267 108.033 54.5002C108.033 83.1755 84.3699 106.505 55.2852 106.505Z" fill="#00749A"/>
</svg>
